<?xml version='1.0' encoding='iso-8859-1'?>
<!-- Uploaded to: SVG Repo, www.svgrepo.com, Generator: SVG Repo Mixer Tools -->
<svg fill="#000000" height="800px" width="800px" version="1.1" xmlns="http://www.w3.org/2000/svg" viewBox="0 0 348.142 348.142" xmlns:xlink="http://www.w3.org/1999/xlink" enable-background="new 0 0 348.142 348.142">
  <path d="m345.207,294.423l-152.689-262.191c-3.867-6.64-10.763-10.604-18.447-10.604s-14.58,3.964-18.447,10.604l-152.689,262.191c-3.892,6.684-3.915,14.677-0.06,21.382 3.854,6.705 10.773,10.708 18.507,10.708h68.909c0.008,0 0.015,0.001 0.023,0.001 0.008,0 0.015-0.001 0.023-0.001h97.454c0.008,0 0.015,0.001 0.023,0.001 0.008,0 0.015-0.001 0.023-0.001h138.923c7.734,0 14.653-4.003 18.507-10.708 3.854-6.706 3.832-14.699-0.06-21.382zm-241.941,17.089l116.351-202.941 40.213,69.052-76.365,133.889h-80.199zm-87.387-3.183c-0.55-0.958-1.65-3.493 0.018-6.357l152.689-262.191c1.657-2.846 4.388-3.153 5.485-3.153s3.828,0.307 5.485,3.153l31.348,53.83-124.928,217.901h-64.594c-3.315,0-4.953-2.226-5.503-3.183zm316.383,0c-0.55,0.957-2.188,3.184-5.502,3.184h-126.028l67.821-118.909 63.691,109.368c1.669,2.864 0.569,5.399 0.018,6.357z"/>
</svg>